<svg xmlns="http://www.w3.org/2000/svg" width="18" height="18.041" viewBox="0 0 18 18.041">
  <path id="temp_preferences_custom_FILL0_wght400_GRAD0_opsz48" d="M16.99,7.807l-.881-2.048-2.13-.942,2.13-.922L16.99,1.95,17.87,3.9,20,4.817l-2.13.942Zm0,12.184-.881-1.966L13.98,17.1l2.13-.922.881-2.068.881,2.068L20,17.1l-2.13.922ZM8,16.837,6.116,12.8,2,10.96,6.116,9.117,8,5.1,9.9,9.117,14,10.96,9.9,12.8Zm0-3.031.983-1.966,2.007-.881L8.983,10.08,8,8.114,7.038,10.08,5.01,10.96l2.027.881ZM8,10.96Z" transform="translate(-2 -1.95)" fill="#26292c" opacity="0.8"/>
</svg>
