<svg xmlns="http://www.w3.org/2000/svg" width="21.119" height="20" viewBox="0 0 21.119 20">
  <path id="query_stats_FILL0_wght400_GRAD0_opsz48" d="M22.314,24.424l-2.776-2.752a4.1,4.1,0,0,1-1.118.565,3.972,3.972,0,0,1-1.241.2A4.152,4.152,0,0,1,13,18.258a4.152,4.152,0,0,1,4.176-4.176,4.152,4.152,0,0,1,4.176,4.176,3.759,3.759,0,0,1-.209,1.241,5.446,5.446,0,0,1-.553,1.142l2.752,2.752a.754.754,0,0,1,.233.516.665.665,0,0,1-.209.516.741.741,0,0,1-1.056,0ZM17.179,20.96A2.71,2.71,0,0,0,19.1,16.342a2.71,2.71,0,0,0-3.832,3.832A2.608,2.608,0,0,0,17.179,20.96Zm-14.347-1.6a.687.687,0,0,1-.295-.467.772.772,0,0,1,.1-.54l3.71-5.921a.693.693,0,0,1,.577-.344.74.74,0,0,1,.626.246l2.285,2.678L13.15,9.659a.72.72,0,0,1,1.228-.025l2.039,3.022a4.655,4.655,0,0,0-.762.16q-.369.111-.737.258l-1.106-1.7L10.6,16.636a.693.693,0,0,1-.577.344.74.74,0,0,1-.626-.246l-2.309-2.7-3.194,5.11a.759.759,0,0,1-.479.344A.674.674,0,0,1,2.832,19.363ZM19,12.9a3.066,3.066,0,0,0-.762-.2l-.811-.1,4.84-7.616a.724.724,0,0,1,1.056-.2.733.733,0,0,1,.307.467.668.668,0,0,1-.111.54Z" transform="translate(-2.525 -4.645)" fill="#26292c" opacity="0.8"/>
</svg>
