<svg xmlns="http://www.w3.org/2000/svg" width="18" height="18" viewBox="0 0 18 18">
  <path id="tune_FILL0_wght400_GRAD0_opsz48" d="M6.75,21.95a.75.75,0,1,1,0-1.5h4.675a.75.75,0,1,1,0,1.5Zm0-12.4a.75.75,0,1,1,0-1.5h8.825a.75.75,0,1,1,0,1.5ZM14.425,24a.727.727,0,0,1-.75-.75V19.125a.75.75,0,1,1,1.5,0V20.45H23.25a.75.75,0,1,1,0,1.5H15.175v1.3a.727.727,0,0,1-.75.75Zm-3-6.2a.727.727,0,0,1-.75-.75v-1.3H6.75a.75.75,0,1,1,0-1.5h3.925V12.9a.75.75,0,1,1,1.5,0v4.15a.727.727,0,0,1-.75.75Zm3-2.05a.75.75,0,1,1,0-1.5H23.25a.75.75,0,1,1,0,1.5Zm4.15-4.125a.727.727,0,0,1-.75-.75V6.75a.75.75,0,1,1,1.5,0v1.3H23.25a.75.75,0,1,1,0,1.5H19.325v1.325a.727.727,0,0,1-.75.75Z" transform="translate(-6 -6)" fill="#26292c" opacity="0.8"/>
</svg>
